<svg width="161" height="894" viewBox="0 0 161 894" fill="none" xmlns="http://www.w3.org/2000/svg">
<g opacity="0.8" filter="url(#filter0_d_10_554)">
<circle cx="78.5" cy="70.5" r="46.5" fill="#F9F9F9"/>
</g>
<g filter="url(#filter1_d_10_554)">
<circle cx="78.5" cy="70.5" r="36.5" fill="#F9F9F9"/>
</g>
<path d="M98.5584 861.969C97.353 860.813 95.6459 860.443 94.2087 861.026C93.8236 861.183 93.466 861.402 93.1456 861.679C92.3286 862.384 90.5145 864.502 89.077 866.597V850.443C89.077 849.07 88.5961 847.728 87.7575 846.76C86.9251 845.8 85.8316 845.282 84.6841 845.308C84.1631 845.318 83.6639 845.44 83.2026 845.652V844.074C83.2026 842.579 82.6791 841.119 81.7658 840.065C80.8608 839.021 79.6764 838.458 78.4238 838.485C75.9264 838.536 73.8875 840.918 73.8127 843.831C73.2717 843.543 72.6842 843.381 72.076 843.36C70.8072 843.316 69.5507 843.893 68.6295 844.942C67.7273 845.97 67.2303 847.327 67.2303 848.758L67.2271 850.288C66.8377 850.138 66.4225 850.056 65.9909 850.056C63.8129 850.056 62.041 852.135 62.041 854.691L62.0424 878.174L62.0457 878.285C62.2277 881.367 62.7773 884.006 63.6798 886.128C64.5259 888.118 65.7063 889.721 67.1881 890.891C70.1042 893.194 73.7065 893.489 76.519 893.489C82.0419 893.489 87.0105 890.267 89.4954 885.076C89.7976 884.505 90.5939 883.035 91.4539 881.45C92.2914 879.906 93.0705 878.483 93.7575 877.227C94.1351 876.537 94.4787 875.909 94.7769 875.362C95.888 873.323 97.0719 871.346 98.2963 869.485C98.7504 868.795 98.8903 868.608 98.9221 868.567C99.4953 867.833 99.8565 866.935 99.9666 865.968C100.14 864.452 99.6265 862.994 98.5584 861.969ZM97.2418 865.54C97.2064 865.849 97.0866 866.142 96.8953 866.387C96.7955 866.515 96.6171 866.758 96.1208 867.513C94.8467 869.448 93.6152 871.504 92.4605 873.624C92.163 874.17 91.8208 874.795 91.4439 875.483C90.7555 876.742 89.9753 878.168 89.1346 879.717C88.2546 881.34 87.44 882.842 87.1418 883.408L87.1107 883.47C85.1164 887.66 81.0582 890.262 76.5193 890.262C74.0974 890.262 71.0221 890.029 68.7232 888.214C66.3775 886.362 65.0916 883.059 64.7919 878.117L64.7905 854.691C64.7905 853.915 65.329 853.283 65.9909 853.283C66.6567 853.283 67.1985 853.915 67.1985 854.691V863.479C67.1985 863.505 67.201 863.531 67.2017 863.557C67.2031 863.585 67.2031 863.614 67.2056 863.643C67.2078 863.668 67.2121 863.693 67.2153 863.718C67.2189 863.746 67.2214 863.775 67.226 863.803C67.2307 863.828 67.2371 863.853 67.2425 863.878C67.2482 863.904 67.2528 863.931 67.26 863.957C67.2664 863.983 67.275 864.007 67.2829 864.031C67.2904 864.056 67.2972 864.081 67.3061 864.105C67.3147 864.13 67.3251 864.153 67.3347 864.176C67.3444 864.2 67.3533 864.224 67.3637 864.247C67.3741 864.27 67.3866 864.291 67.398 864.314C67.4095 864.336 67.4202 864.359 67.4323 864.38C67.4449 864.401 67.4588 864.421 67.472 864.442C67.4853 864.463 67.4974 864.484 67.5114 864.504C67.5253 864.524 67.5407 864.542 67.555 864.561C67.57 864.58 67.5843 864.601 67.6 864.619C67.6154 864.637 67.6315 864.653 67.6476 864.67C67.6641 864.688 67.6801 864.706 67.6977 864.723C67.7141 864.739 67.7316 864.753 67.7488 864.769C67.767 864.784 67.7846 864.801 67.8032 864.816C67.8207 864.83 67.8393 864.842 67.8572 864.855C67.8768 864.869 67.8961 864.884 67.9165 864.897C67.9351 864.909 67.9548 864.919 67.9737 864.93C67.9945 864.942 68.0152 864.954 68.0367 864.965C68.0563 864.975 68.0774 864.983 68.0975 864.992C68.1193 865.001 68.1407 865.011 68.1629 865.02C68.184 865.027 68.2062 865.033 68.2276 865.04C68.2501 865.046 68.272 865.054 68.2945 865.06C68.3174 865.065 68.3403 865.068 68.3631 865.072C68.386 865.076 68.4082 865.082 68.4311 865.085C68.454 865.087 68.4776 865.087 68.5008 865.089C68.5237 865.09 68.5466 865.093 68.5698 865.093C68.5709 865.093 68.5723 865.093 68.5734 865.093C68.621 865.093 68.6678 865.09 68.7139 865.085C68.734 865.082 68.7536 865.077 68.7736 865.074C68.799 865.07 68.8251 865.066 68.8502 865.06C68.8766 865.054 68.902 865.045 68.9278 865.037C68.9456 865.031 68.9642 865.027 68.9818 865.021C69.0104 865.01 69.0383 864.997 69.0662 864.985C69.0797 864.978 69.0944 864.973 69.108 864.967C69.1359 864.953 69.1623 864.936 69.1892 864.921C69.202 864.913 69.2153 864.907 69.2281 864.899C69.2532 864.883 69.2768 864.865 69.3007 864.847C69.3143 864.837 69.3283 864.829 69.3411 864.818C69.3633 864.801 69.3844 864.781 69.4055 864.762C69.4194 864.75 69.4338 864.738 69.447 864.725C69.4666 864.707 69.4845 864.686 69.5031 864.666C69.5171 864.651 69.5314 864.637 69.545 864.622C69.5621 864.601 69.5775 864.58 69.5936 864.559C69.6068 864.541 69.6211 864.525 69.6336 864.507C69.6479 864.487 69.6608 864.465 69.6744 864.443C69.6873 864.423 69.7009 864.404 69.7127 864.383C69.7252 864.361 69.7356 864.339 69.747 864.317C69.7584 864.295 69.771 864.273 69.7817 864.25C69.7921 864.228 69.8006 864.204 69.8103 864.181C69.8199 864.157 69.8307 864.134 69.8396 864.109C69.8482 864.086 69.8546 864.061 69.8621 864.037C69.8704 864.012 69.8789 863.987 69.8861 863.961C69.8925 863.936 69.8972 863.911 69.9025 863.886C69.9083 863.86 69.9151 863.834 69.9201 863.807C69.9244 863.781 69.9269 863.755 69.9301 863.729C69.934 863.702 69.9383 863.674 69.9408 863.647C69.9433 863.621 69.9433 863.594 69.9444 863.567C69.9458 863.539 69.9483 863.512 69.9483 863.484L69.9801 848.763C69.9801 848.207 70.1807 847.672 70.5448 847.257C70.936 846.812 71.4652 846.566 71.9948 846.585C72.9867 846.62 73.7938 847.633 73.7938 848.845L73.8095 863.394C73.8095 863.424 73.812 863.452 73.8135 863.481C73.8145 863.506 73.8145 863.533 73.8167 863.558C73.8192 863.588 73.8242 863.617 73.8281 863.646C73.8313 863.67 73.8335 863.695 73.8374 863.718C73.8431 863.75 73.851 863.781 73.8582 863.812C73.8628 863.832 73.8664 863.853 73.8714 863.873C73.8803 863.906 73.8918 863.939 73.9025 863.972C73.9079 863.988 73.9118 864.005 73.9175 864.021C73.9304 864.056 73.9451 864.09 73.9597 864.123C73.9654 864.136 73.9697 864.149 73.9755 864.161C73.9915 864.196 74.0098 864.229 74.0277 864.262C74.0334 864.273 74.0384 864.284 74.0445 864.294C74.0634 864.327 74.0842 864.359 74.1049 864.39C74.1113 864.399 74.1171 864.409 74.1235 864.419C74.1467 864.452 74.1718 864.483 74.1972 864.513C74.2025 864.52 74.2068 864.527 74.2122 864.533C74.2383 864.564 74.2662 864.592 74.2944 864.62C74.2998 864.626 74.3044 864.632 74.3098 864.637C74.338 864.664 74.3674 864.689 74.397 864.714C74.4035 864.719 74.4092 864.725 74.4156 864.73C74.4457 864.754 74.4771 864.775 74.5086 864.796C74.5154 864.801 74.5218 864.806 74.529 864.811C74.5619 864.831 74.5959 864.85 74.6302 864.868C74.6366 864.871 74.6427 864.876 74.6491 864.879C74.6842 864.896 74.7203 864.911 74.7568 864.925C74.7632 864.927 74.7689 864.93 74.7754 864.933C74.8115 864.946 74.8483 864.957 74.8851 864.966C74.8927 864.968 74.8998 864.971 74.9073 864.973C74.9967 864.994 75.0893 865.006 75.1841 865.006C75.1848 865.006 75.1855 865.006 75.1862 865.006C75.2102 865.006 75.2338 865.003 75.2574 865.001C75.2803 865 75.3032 865 75.3257 864.997C75.3507 864.994 75.3747 864.988 75.3994 864.984C75.4201 864.98 75.4416 864.977 75.4623 864.972C75.487 864.967 75.5109 864.958 75.5352 864.951C75.5549 864.944 75.5746 864.94 75.5939 864.933C75.6186 864.924 75.6422 864.912 75.6661 864.902C75.684 864.894 75.7026 864.887 75.7201 864.878C75.7448 864.866 75.7687 864.851 75.7927 864.837C75.8084 864.828 75.8249 864.82 75.8403 864.81C75.8639 864.795 75.8864 864.778 75.9093 864.761C75.9239 864.75 75.9393 864.741 75.9536 864.729C75.9754 864.712 75.9958 864.693 76.0166 864.674C76.0309 864.662 76.0455 864.65 76.0595 864.636C76.0791 864.617 76.0977 864.596 76.1167 864.575C76.1299 864.561 76.1439 864.547 76.1571 864.532C76.1746 864.511 76.1911 864.489 76.2079 864.467C76.2204 864.45 76.2336 864.435 76.2458 864.418C76.2608 864.396 76.2744 864.373 76.2883 864.351C76.3005 864.331 76.3133 864.313 76.3248 864.293C76.3377 864.271 76.3484 864.248 76.3602 864.225C76.3713 864.203 76.3834 864.182 76.3934 864.16C76.4042 864.137 76.4128 864.113 76.4224 864.09C76.4321 864.066 76.4428 864.043 76.4514 864.019C76.4596 863.996 76.4664 863.972 76.4735 863.948C76.4818 863.922 76.4907 863.897 76.4975 863.871C76.5039 863.846 76.5086 863.82 76.5143 863.795C76.52 863.768 76.5268 863.743 76.5311 863.716C76.5358 863.69 76.5383 863.663 76.5418 863.636C76.5451 863.609 76.5497 863.583 76.5519 863.556C76.5544 863.529 76.5544 863.501 76.5554 863.473C76.5569 863.446 76.559 863.42 76.559 863.392V843.997C76.559 842.758 77.4172 841.733 78.4717 841.712C78.9806 841.703 79.464 841.934 79.8391 842.367C80.2296 842.817 80.4535 843.439 80.4535 844.074V863.481C80.4535 863.51 80.456 863.539 80.4574 863.568C80.4585 863.593 80.4585 863.62 80.4606 863.645C80.4631 863.674 80.4681 863.701 80.4717 863.729C80.4753 863.755 80.4774 863.781 80.4817 863.805C80.4867 863.834 80.4939 863.861 80.5 863.889C80.5053 863.912 80.5093 863.936 80.5157 863.96C80.5236 863.99 80.5336 864.019 80.5429 864.048C80.5493 864.068 80.5547 864.088 80.5618 864.108C80.5729 864.138 80.5858 864.167 80.5983 864.197C80.6055 864.214 80.6119 864.232 80.6198 864.249C80.6333 864.279 80.6491 864.307 80.6645 864.335C80.6727 864.351 80.6798 864.367 80.6888 864.382C80.7052 864.411 80.7235 864.438 80.7417 864.465C80.7506 864.479 80.7585 864.493 80.7678 864.506C80.7878 864.535 80.81 864.562 80.8318 864.589C80.8404 864.599 80.8479 864.61 80.8565 864.62C80.879 864.647 80.9033 864.672 80.9276 864.696C80.9366 864.706 80.9448 864.716 80.9541 864.724C80.9813 864.751 81.0099 864.775 81.0385 864.799C81.0456 864.805 81.0524 864.811 81.0599 864.818C81.0907 864.842 81.1229 864.864 81.1554 864.886C81.1615 864.889 81.1669 864.894 81.1729 864.898C81.2087 864.921 81.2452 864.941 81.2827 864.96C81.2863 864.962 81.2895 864.964 81.2931 864.966C81.3321 864.985 81.3721 865.002 81.4129 865.017C81.415 865.019 81.4172 865.019 81.4197 865.02C81.5051 865.052 81.5942 865.073 81.6861 865.085C81.6868 865.085 81.6872 865.085 81.6879 865.085C81.734 865.09 81.7808 865.093 81.8284 865.093C81.8288 865.093 81.8291 865.093 81.8298 865.093C81.8541 865.093 81.8781 865.09 81.9024 865.089C81.9249 865.087 81.9475 865.087 81.9696 865.085C81.995 865.082 82.0197 865.076 82.0447 865.071C82.0651 865.067 82.0859 865.065 82.1062 865.06C82.1331 865.053 82.1588 865.044 82.1849 865.036C82.2024 865.031 82.2207 865.027 82.2378 865.02C82.2657 865.01 82.2925 864.997 82.3197 864.985C82.3344 864.978 82.3494 864.973 82.3641 864.966C82.3916 864.952 82.4181 864.936 82.4449 864.92C82.4578 864.912 82.4713 864.906 82.4842 864.898C82.5103 864.881 82.5353 864.862 82.5607 864.843C82.5729 864.834 82.5854 864.826 82.5976 864.817C82.6233 864.797 82.6473 864.774 82.6716 864.752C82.682 864.742 82.693 864.734 82.7034 864.724C82.7274 864.701 82.7499 864.675 82.7728 864.65C82.7821 864.64 82.7921 864.63 82.8007 864.62C82.8228 864.594 82.8436 864.566 82.864 864.538C82.8726 864.527 82.8815 864.517 82.8897 864.505C82.9094 864.477 82.9273 864.447 82.9451 864.418C82.9527 864.406 82.9612 864.394 82.9687 864.381C82.9855 864.352 83.0006 864.321 83.0156 864.291C83.0227 864.276 83.031 864.263 83.0378 864.248C83.0521 864.217 83.0642 864.185 83.0767 864.152C83.0828 864.137 83.09 864.123 83.0953 864.107C83.1068 864.076 83.1161 864.043 83.1257 864.011C83.1307 863.993 83.1372 863.977 83.1418 863.959C83.1497 863.928 83.1558 863.896 83.1626 863.864C83.1665 863.844 83.1719 863.824 83.1754 863.804C83.1808 863.773 83.184 863.741 83.1879 863.709C83.1904 863.687 83.1944 863.666 83.1962 863.644C83.199 863.614 83.199 863.584 83.2001 863.554C83.2012 863.529 83.2033 863.505 83.2033 863.479V850.163C83.2927 849.263 83.9439 848.55 84.7324 848.534C85.1375 848.526 85.5287 848.713 85.8309 849.062C86.147 849.426 86.3283 849.93 86.3283 850.443V869.486L86.329 869.558C86.3365 870.604 86.9215 871.487 87.7844 871.757C88.6415 872.024 89.5172 871.601 89.9678 870.696L89.9764 870.678C91.0541 868.468 93.9348 865.004 94.7759 864.278C94.8731 864.194 94.9851 864.126 95.1084 864.076C95.6563 863.854 96.3432 864.011 96.8188 864.468C97.0426 864.683 97.2983 865.044 97.2418 865.54Z" fill="#F48C06"/>
<defs>
<filter id="filter0_d_10_554" x="0" y="0" width="161" height="161" filterUnits="userSpaceOnUse" color-interpolation-filters="sRGB">
<feFlood flood-opacity="0" result="BackgroundImageFix"/>
<feColorMatrix in="SourceAlpha" type="matrix" values="0 0 0 0 0 0 0 0 0 0 0 0 0 0 0 0 0 0 127 0" result="hardAlpha"/>
<feOffset dx="2" dy="10"/>
<feGaussianBlur stdDeviation="17"/>
<feColorMatrix type="matrix" values="0 0 0 0 0.0599965 0 0 0 0 0.0750638 0 0 0 0 0.154167 0 0 0 0.15 0"/>
<feBlend mode="normal" in2="BackgroundImageFix" result="effect1_dropShadow_10_554"/>
<feBlend mode="normal" in="SourceGraphic" in2="effect1_dropShadow_10_554" result="shape"/>
</filter>
<filter id="filter1_d_10_554" x="10" y="10" width="141" height="141" filterUnits="userSpaceOnUse" color-interpolation-filters="sRGB">
<feFlood flood-opacity="0" result="BackgroundImageFix"/>
<feColorMatrix in="SourceAlpha" type="matrix" values="0 0 0 0 0 0 0 0 0 0 0 0 0 0 0 0 0 0 127 0" result="hardAlpha"/>
<feOffset dx="2" dy="10"/>
<feGaussianBlur stdDeviation="17"/>
<feColorMatrix type="matrix" values="0 0 0 0 0.0599965 0 0 0 0 0.0750638 0 0 0 0 0.154167 0 0 0 0.15 0"/>
<feBlend mode="normal" in2="BackgroundImageFix" result="effect1_dropShadow_10_554"/>
<feBlend mode="normal" in="SourceGraphic" in2="effect1_dropShadow_10_554" result="shape"/>
</filter>
</defs>
</svg>
