<svg width="14" height="14" viewBox="0 0 14 14" fill="none" xmlns="http://www.w3.org/2000/svg">
<g clip-path="url(#clip0_10_784)">
<path d="M13.3845 1.44243L10.7658 0.838134C10.4813 0.772668 10.1893 0.921224 10.0734 1.18812L8.86484 4.00815C8.75909 4.2549 8.82959 4.54446 9.03858 4.71316L10.5644 5.96203C9.65798 7.89325 8.07423 9.49966 6.10272 10.4237L4.85385 8.89789C4.68264 8.6889 4.3956 8.6184 4.14884 8.72415L1.32881 9.93274C1.0594 10.0511 0.910842 10.3432 0.976307 10.6277L1.5806 13.2463C1.64355 13.5182 1.88526 13.7146 2.16979 13.7146C8.61809 13.7146 13.8528 8.48999 13.8528 2.03161C13.8528 1.74961 13.6589 1.50537 13.3845 1.44243Z" fill="white"/>
</g>
<defs>
<clipPath id="clip0_10_784">
<rect x="0.961914" y="0.823242" width="12.8916" height="12.8916" fill="white"/>
</clipPath>
</defs>
</svg>
